<svg xmlns="http://www.w3.org/2000/svg" xmlns:xlink="http://www.w3.org/1999/xlink" width="500" zoomAndPan="magnify" viewBox="0 0 375 374.999991" height="500" preserveAspectRatio="xMidYMid meet" version="1.0"><defs><g/></defs><g fill="#3cb6c0" fill-opacity="1"><g transform="translate(43.465455, 194.843651)"><g><path d="M 24.65625 -21.570312 L 24.65625 -33.890625 L 21.570312 -36.976562 L 18.488281 -36.976562 L 15.402344 -33.890625 L 15.402344 -21.570312 Z M 0 0 L 3.085938 -3.085938 L 3.085938 -30.804688 L 12.316406 -40.058594 L 27.742188 -40.058594 L 36.976562 -30.804688 L 36.976562 -3.085938 L 40.058594 0 L 23.113281 0 L 24.65625 -3.085938 L 24.65625 -15.402344 L 27.742188 -18.488281 L 12.316406 -18.488281 L 15.402344 -15.402344 L 15.402344 -3.085938 L 16.945312 0 Z M 0 0 "/></g></g></g><g fill="#3cb6c0" fill-opacity="1"><g transform="translate(81.902645, 194.843651)"><g><path d="M 0 0 L 3.085938 -3.085938 L 3.085938 -36.976562 L 0 -40.058594 L 30.804688 -40.058594 L 30.804688 -30.804688 L 24.65625 -36.976562 L 12.316406 -36.976562 L 15.402344 -33.890625 L 15.402344 -24.65625 L 21.570312 -24.65625 L 24.65625 -27.742188 L 24.65625 -18.488281 L 21.570312 -21.570312 L 12.316406 -21.570312 L 15.402344 -18.488281 L 15.402344 -3.085938 L 18.488281 0 Z M 0 0 "/></g></g></g><g fill="#3cb6c0" fill-opacity="1"><g transform="translate(111.086067, 194.843651)"><g><path d="M 23.113281 -18.488281 L 24.65625 -20.03125 L 24.65625 -33.890625 L 21.570312 -36.976562 L 12.316406 -36.976562 L 15.402344 -33.890625 L 15.402344 -18.488281 Z M 0 0 L 3.085938 -3.085938 L 3.085938 -36.976562 L 0 -40.058594 L 32.347656 -40.058594 L 36.976562 -35.433594 L 36.976562 -23.113281 L 32.347656 -18.488281 L 40.058594 -3.085938 L 43.144531 0 L 29.285156 0 L 21.570312 -15.402344 L 12.316406 -15.402344 L 15.402344 -12.316406 L 15.402344 -3.085938 L 18.488281 0 Z M 0 0 "/></g></g></g><g fill="#3cb6c0" fill-opacity="1"><g transform="translate(152.607853, 194.843651)"><g><path d="M 24.65625 -3.085938 L 21.570312 -6.167969 L 21.570312 -35.433594 L 20.03125 -36.976562 L 9.253906 -36.976562 L 12.316406 -33.890625 L 12.316406 -4.625 L 13.859375 -3.085938 Z M 4.625 0 L 0 -4.625 L 0 -35.433594 L 4.625 -40.058594 L 29.285156 -40.058594 L 33.890625 -35.433594 L 33.890625 -4.625 L 29.285156 0 Z M 4.625 0 "/></g></g></g><g fill="#3cb6c0" fill-opacity="1"><g transform="translate(184.875854, 194.843651)"><g><path d="M 23.113281 -3.085938 L 24.65625 -4.625 L 24.65625 -20.03125 L 23.113281 -21.570312 L 12.316406 -21.570312 L 15.402344 -18.488281 L 15.402344 -6.167969 L 12.316406 -3.085938 Z M 23.113281 -24.65625 L 24.65625 -26.199219 L 24.65625 -35.433594 L 23.113281 -36.976562 L 12.316406 -36.976562 L 15.402344 -33.890625 L 15.402344 -24.65625 Z M 0 0 L 3.085938 -3.085938 L 3.085938 -36.976562 L 0 -40.058594 L 32.347656 -40.058594 L 36.976562 -35.433594 L 36.976562 -29.285156 L 32.347656 -24.65625 L 36.976562 -20.03125 L 36.976562 -4.625 L 32.347656 0 Z M 0 0 "/></g></g></g><g fill="#3cb6c0" fill-opacity="1"><g transform="translate(220.228449, 194.843651)"><g><path d="M 24.65625 -3.085938 L 21.570312 -6.167969 L 21.570312 -35.433594 L 20.03125 -36.976562 L 9.253906 -36.976562 L 12.316406 -33.890625 L 12.316406 -4.625 L 13.859375 -3.085938 Z M 4.625 0 L 0 -4.625 L 0 -35.433594 L 4.625 -40.058594 L 29.285156 -40.058594 L 33.890625 -35.433594 L 33.890625 -4.625 L 29.285156 0 Z M 4.625 0 "/></g></g></g><g fill="#3cb6c0" fill-opacity="1"><g transform="translate(252.49645, 194.843651)"><g><path d="M 24.65625 -3.085938 L 21.570312 -6.167969 L 21.570312 -35.433594 L 20.03125 -36.976562 L 9.253906 -36.976562 L 12.316406 -33.890625 L 12.316406 -4.625 L 13.859375 -3.085938 Z M 4.625 0 L 0 -4.625 L 0 -35.433594 L 4.625 -40.058594 L 29.285156 -40.058594 L 33.890625 -35.433594 L 33.890625 -4.625 L 29.285156 0 Z M 4.625 0 "/></g></g></g><g fill="#3cb6c0" fill-opacity="1"><g transform="translate(284.764451, 194.843651)"><g><path d="M 0 0 L 3.085938 -3.085938 L 3.085938 -36.976562 L 0 -40.058594 L 16.945312 -40.058594 L 15.402344 -36.976562 L 15.402344 -21.570312 L 18.488281 -21.570312 L 27.742188 -40.058594 L 33.890625 -40.058594 L 30.804688 -36.976562 L 26.199219 -27.742188 L 38.515625 -3.085938 L 41.601562 0 L 27.742188 0 L 18.488281 -18.488281 L 12.316406 -18.488281 L 15.402344 -15.402344 L 15.402344 -3.085938 L 16.945312 0 Z M 0 0 "/></g></g></g><path stroke-linecap="butt" transform="matrix(1.001491, 0, 0, 1.001491, 37.557149, 141.880903)" fill="none" stroke-linejoin="miter" d="M 29.633038 30.456493 L 29.633038 18.162326 L 26.559496 15.077083 L 23.474253 15.077083 L 20.39681 18.162326 L 20.39681 30.456493 Z M 5.0174 51.998588 L 8.090942 48.925047 L 8.090942 21.239768 L 17.319368 11.99964 L 32.71048 11.99964 L 41.938906 21.239768 L 41.938906 48.925047 L 45.016348 51.998588 L 28.092366 51.998588 L 29.633038 48.925047 L 29.633038 36.619178 L 32.71048 33.541736 L 17.319368 33.541736 L 20.39681 36.619178 L 20.39681 48.925047 L 21.941382 51.998588 Z M 43.393768 51.998588 L 46.47121 48.925047 L 46.47121 15.077083 L 43.393768 11.99964 L 74.156489 11.99964 L 74.156489 21.239768 L 68.013306 15.077083 L 55.699636 15.077083 L 58.777079 18.162326 L 58.777079 27.379051 L 64.939764 27.379051 L 68.013306 24.305509 L 68.013306 33.541736 L 64.939764 30.456493 L 55.699636 30.456493 L 58.777079 33.541736 L 58.777079 48.925047 L 61.854521 51.998588 Z M 95.612775 33.541736 L 97.153446 32.001065 L 97.153446 18.162326 L 94.079904 15.077083 L 84.839777 15.077083 L 87.917219 18.162326 L 87.917219 33.541736 Z M 72.533908 51.998588 L 75.611351 48.925047 L 75.611351 15.077083 L 72.533908 11.99964 L 104.841201 11.99964 L 109.459315 16.617754 L 109.459315 28.923622 L 104.841201 33.541736 L 112.536757 48.925047 L 115.610299 51.998588 L 101.77546 51.998588 L 94.079904 36.619178 L 84.839777 36.619178 L 87.917219 39.69662 L 87.917219 48.925047 L 90.990761 51.998588 Z M 138.615057 48.925047 L 135.537615 45.839804 L 135.537615 16.617754 L 133.996943 15.077083 L 123.235647 15.077083 L 126.301387 18.162326 L 126.301387 47.380475 L 127.834258 48.925047 Z M 118.613633 51.998588 L 113.995519 47.380475 L 113.995519 16.617754 L 118.613633 11.99964 L 143.23317 11.99964 L 147.831782 16.617754 L 147.831782 47.380475 L 143.23317 51.998588 Z M 169.291968 48.925047 L 170.83654 47.380475 L 170.83654 32.001065 L 169.291968 30.456493 L 158.51897 30.456493 L 161.596412 33.541736 L 161.596412 45.839804 L 158.51897 48.925047 Z M 169.291968 27.379051 L 170.83654 25.838379 L 170.83654 16.617754 L 169.291968 15.077083 L 158.51897 15.077083 L 161.596412 18.162326 L 161.596412 27.379051 Z M 146.217002 51.998588 L 149.290544 48.925047 L 149.290544 15.077083 L 146.217002 11.99964 L 178.520394 11.99964 L 183.138508 16.617754 L 183.138508 22.760937 L 178.520394 27.379051 L 183.138508 32.001065 L 183.138508 47.380475 L 178.520394 51.998588 Z M 206.135465 48.925047 L 203.058023 45.839804 L 203.058023 16.617754 L 201.517352 15.077083 L 190.752155 15.077083 L 193.821796 18.162326 L 193.821796 47.380475 L 195.354666 48.925047 Z M 186.134041 51.998588 L 181.515928 47.380475 L 181.515928 16.617754 L 186.134041 11.99964 L 210.753579 11.99964 L 215.35219 16.617754 L 215.35219 47.380475 L 210.753579 51.998588 Z M 238.353048 48.925047 L 235.279506 45.839804 L 235.279506 16.617754 L 233.734934 15.077083 L 222.973638 15.077083 L 226.039379 18.162326 L 226.039379 47.380475 L 227.572249 48.925047 Z M 218.355524 51.998588 L 213.73351 47.380475 L 213.73351 16.617754 L 218.355524 11.99964 L 242.975062 11.99964 L 247.573673 16.617754 L 247.573673 47.380475 L 242.975062 51.998588 Z M 245.954993 51.998588 L 249.032436 48.925047 L 249.032436 15.077083 L 245.954993 11.99964 L 262.878975 11.99964 L 261.334404 15.077083 L 261.334404 30.456493 L 264.411846 30.456493 L 273.651973 11.99964 L 279.795157 11.99964 L 276.717714 15.077083 L 272.119103 24.305509 L 284.41327 48.925047 L 287.498513 51.998588 L 273.651973 51.998588 L 264.411846 33.541736 L 258.260862 33.541736 L 261.334404 36.619178 L 261.334404 48.925047 L 262.878975 51.998588 Z M 245.954993 51.998588 " stroke="#ffffff" stroke-width="1" stroke-opacity="1" stroke-miterlimit="4"/></svg>